<?xml version="1.0" encoding="UTF-8" standalone="no"?>
<!DOCTYPE svg PUBLIC "-//W3C//DTD SVG 1.1//EN" "http://www.w3.org/Graphics/SVG/1.1/DTD/svg11.dtd">
<svg width="100%" height="100%" viewBox="0 0 49 49" version="1.1" xmlns="http://www.w3.org/2000/svg" xmlns:xlink="http://www.w3.org/1999/xlink" xml:space="preserve" xmlns:serif="http://www.serif.com/" style="fill-rule:evenodd;clip-rule:evenodd;stroke-linejoin:round;stroke-miterlimit:2;">
    <g transform="matrix(1,0,0,1,-926.397,-614.577)">
        <g transform="matrix(0.850682,0,0,1.34434,1393.31,3426.51)">
            <g transform="matrix(-2.74772,6.95093e-18,1.09846e-17,-1.68197,-491.32,-2055.81)">
                <path d="M14.473,11.93C14.648,12.836 14.738,13.777 14.738,14.738L14.738,21.332L0,21.332L0,0C3.57,0 6.844,1.266 9.391,3.379C11.938,1.684 16.016,0.07 20.945,0.969C19.586,1.551 14.352,5.039 14.547,12.023C14.523,11.992 14.496,11.957 14.473,11.93Z" style="fill:rgb(233,232,235);"/>
            </g>
        </g>
    </g>
</svg>
